<svg width="64" height="64" viewBox="0 0 64 64" fill="none" xmlns="http://www.w3.org/2000/svg">
<circle cx="32" cy="32" r="32" fill="black"/>
<mask id="mask0_2479_1626" style="mask-type:alpha" maskUnits="userSpaceOnUse" x="0" y="0" width="64" height="64">
<circle cx="32" cy="32" r="32" fill="#5B58EE"/>
</mask>
<g mask="url(#mask0_2479_1626)">
<path d="M47.1638 29.977H39.643C39.1814 29.977 38.8067 30.3475 38.8067 30.804V38.9076C38.7959 41.1254 37.2157 42.9137 35.2608 42.9137H33.6915C31.438 42.9137 29.6189 41.3456 29.6189 39.4016V22.5984C29.6189 20.6598 31.438 19.0863 33.6915 19.0863H37.9705C38.4375 19.0863 38.8121 18.7158 38.8121 18.2539V10.8324C38.8121 10.3705 38.4375 10 37.9705 10H30.466C29.999 10 29.6243 10.3705 29.6243 10.8324V15.0641C29.6243 17.2927 28.0387 19.0917 26.073 19.0917H16.8417C16.3747 19.0917 16 19.4676 16 19.9241V42.076C16 42.5378 16.3801 42.9083 16.8417 42.9083H26.0784C27.9572 42.9083 29.4885 44.5623 29.6134 46.6621V51.1623C29.6134 51.6241 29.9936 52 30.4605 52H37.9596C38.4266 52 38.8067 51.6241 38.8067 51.1623V46.3076C38.8719 44.4173 40.6638 42.9083 42.8739 42.9083H47.1638C47.6253 42.9083 48 42.5378 48 42.0813V30.7986C48 30.3422 47.6253 29.9716 47.1638 29.9716V29.977Z" fill="white"/>
</g>
</svg>
