<svg width="49" height="64" viewBox="0 0 49 64" fill="none" xmlns="http://www.w3.org/2000/svg">
<path d="M47.7195 30.4411H36.2033C35.4965 30.4411 34.9228 31.0058 34.9228 31.7013V44.0496C34.9062 47.4292 32.4865 50.1542 29.4931 50.1542H27.0901C23.6394 50.1542 20.8539 47.7647 20.8539 44.8025V19.1975C20.8539 16.2434 23.6394 13.8458 27.0901 13.8458H33.6423C34.3574 13.8458 34.9311 13.2812 34.9311 12.5774V1.26838C34.9311 0.564634 34.3574 0 33.6423 0H22.151C21.4359 0 20.8622 0.564634 20.8622 1.26838V7.71666C20.8622 11.1126 18.4342 13.854 15.4242 13.854H1.28882C0.573731 13.854 0 14.4268 0 15.1224V48.8776C0 49.5814 0.582046 50.146 1.28882 50.146H15.4325C18.3095 50.146 20.6543 52.6664 20.8456 55.866V62.7234C20.8456 63.4272 21.4276 64 22.1427 64H33.6257C34.3407 64 34.9228 63.4272 34.9228 62.7234V55.3259C35.0226 52.4455 37.7665 50.146 41.1507 50.146H47.7195C48.4263 50.146 49 49.5814 49 48.8858V31.6931C49 30.9976 48.4263 30.4329 47.7195 30.4329V30.4411Z" fill="white"/>
</svg>
